<svg width="172" height="47" viewBox="0 0 172 47" enable-background="new" version="1.1" xmlns="http://www.w3.org/2000/svg"><defs><linearGradient id="solidLightBlue" gradientTransform="matrix(2 0 0 2 -124.86 3375.7)"><stop stop-color="#60a4db" offset="0"/></linearGradient><linearGradient id="solidDarkBlue" gradientTransform="translate(-13.363 -850.82)"><stop stop-color="#383779" offset="0"/></linearGradient><linearGradient id="a" x1="98.244" x2="129.74" y1="31.727" y2="31.727" gradientTransform="matrix(1.9051 0 0 .45848 -89.188 -15.824)" gradientUnits="userSpaceOnUse"><stop stop-color="#60a4db" offset="0"/><stop stop-color="#fff" offset=".5"/><stop stop-color="#60a4db" offset="1"/></linearGradient></defs><circle cx="127.98" cy="23.723" r=".13477" display="none" fill="#f00" fill-rule="evenodd" paint-order="normal"/><rect x="-29.682" y="-6.9121" width="233" height="60" rx="10" display="none" fill="#fffffb" fill-rule="evenodd" paint-order="normal"/><path d="m153.17 0.45703c-9.6117 0.21701-21.569 3.2366-33.148 8.3711-23.662 10.492-39.294 26.766-34.877 36.33 0.3074 0.6657 0.74164 1.2729 1.252 1.8418-3.7453-9.7439 11.374-25.753 33.92-36.212 22.877-10.613 44.8-11.526 49.043-1.8426 1.4725 3.3609 0.6101 7.7168-2.4531 12.535 4.2613-5.5073 5.649-10.539 3.9238-14.316-2.0616-4.5146-8.4068-6.9159-17.66-6.707z" enable-background="new" fill="url(#solidLightBlue)" fill-rule="evenodd" paint-order="normal"/><rect x="97.977" y="-26.278" width="60" height="50" enable-background="new" fill="url(#a)" fill-rule="evenodd" paint-order="normal"><animateTransform attributeName="transform" attributeType="XML" type="rotate" from="0 127.98 23.723" to="360 127.98 23.723" dur="3s" repeatCount="indefinite"/></rect><path d="m12.818-91.412v230h230v-230zm142.05 91.861c8.3292 0.10821 14.026 2.4824 15.959 6.7148 1.7252 3.7779 0.33744 8.8091-3.9238 14.316 3.0632-4.8184 3.9257-9.1742 2.4531-12.535-4.2428-9.6839-26.166-8.771-49.043 1.8418-22.546 10.459-37.665 26.469-33.92 36.213-0.51031-0.56888-0.94455-1.1761-1.252-1.8418-4.4166-9.5645 11.215-25.838 34.877-36.33 11.579-5.1345 23.537-8.1541 33.148-8.3711 0.57833-0.013057 1.1459-0.01503 1.7012-0.00781z" enable-background="new" fill="#fff" fill-rule="evenodd" paint-order="normal"/><path d="m148.8 7.2051c-3.9105 0-7.5724 1.4749-9.9336 4.2891-2.5529 3.0426-3.6178 6.9158-3.5801 10.541 0.0404 3.8829 1.1558 7.6581 3.5801 10.344 2.6617 2.9486 6.3829 4.209 9.9336 4.209h1.9824c2.3942-0.0653 4.2589-0.79604 5.9941-2.082l0.2832 1.4531h5.8789v-15.83h-11.855v5.248h3.8574c0 3.3054-2.896 4.4766-5.1523 4.4766s-3.4761-0.97592-4.5527-2.4648-1.6296-4.6156-1.6094-6.1602c0.0202-1.5446 0.38524-3.8312 1.6094-5.3047 1.0708-1.2889 2.8148-2.334 4.4883-2.334 2.5237 0 4.4251 1.9463 4.9609 3.7148h7.8242c-0.37001-2.3934-1.7327-5.8579-3.9726-7.543-2.3047-1.7337-5.0941-2.5566-7.7539-2.5566zm-22.082 0.69336c-2.1761 0.83246-4.3453 1.7453-6.4883 2.7305-3.8425 1.7836-7.5663 3.7846-11.064 5.9453v19.385h8.0977v-9.8457h3.8633c2.7472 0 3.9717 1.6576 4.3281 3.8125 0.34344 2.076 0.17871 4.1366 0.91016 6.0332h8.7441c-0.69063-0.98856-0.84862-2.1446-0.97265-3.2266-0.13514-1.1789-0.13396-2.287-0.19532-3.4219-0.0789-1.4599-0.39972-2.8263-0.97461-4.0508-0.64089-1.3651-1.8533-2.0425-3.0781-2.5176 2.9217-1.547 4.4388-4.1565 4.4023-7.1191-0.026-2.1113-0.80556-4.1228-2.2207-5.4668-1.5093-1.4335-3.452-2.1398-5.3516-2.2578zm-9.4551 6.6699h4.3789c2.4698 0 3.9142 1.1071 3.9043 2.707-0.012 1.9413-1.7637 2.793-3.9043 2.793h-4.3789zm-10.473 3.5371c-5.104 3.3554-9.5302 6.9698-12.992 10.609l4.0859 7.2441h8.9062zM81.318 7.875 81.318 7.875 81.318 7.875" fill="url(#solidLightBlue)"/><path d="m81.318 7.875v28.084h3.8008c0.90881-2.0276 2.2269-4.1375 3.9082-6.2812v-9.4258l3.2324 5.7285c1.6032-1.6676 3.4083-3.3359 5.3906-4.9863l-7.1445-13.119zm17.768 0v11.951c2.3552-1.8693 4.9318-3.705 7.709-5.4746v-6.4766zm10.084 0v5.0059c2.9358-1.7607 6.069-3.4385 9.3594-5.0059z" fill="url(#solidDarkBlue)"/><path d="m8.5742 7.6914c-2.4565 0.0177-5.7411 1.2638-6.9473 3.7754-1.652 3.4402-1.6725 7.2638-1.6094 10.816 0.06315 3.5526-0.1992 7.4383 1.0293 10.777 0.96728 2.6291 3.2179 3.6627 5.5977 3.6973 1.0442 0.0152 2.052-0.10346 2.9258-0.51172 1.0297-0.4811 1.6559-1.6012 2.0898-2.3984l0.12891 2.4785h4.0527v-15.262h-7.7188v4.9551h2.123c0 1.2062-0.07669 2.2009-0.16211 2.9902-0.16277 1.5042-0.44202 2.9102-1.8652 2.9102-2.1965 0-1.904-3.3053-1.9609-4.916-0.04453-1.2586-0.06491-2.8327-0.06445-4.7207 0.00064-2.6302-0.03732-5.1479 0.32227-7.6699 0.18563-1.3019 0.86029-1.9668 1.832-1.9668 1.553 0 1.7009 2.956 1.7051 4.4844h5.7891c-0.07002-2.6047-0.39832-5.3806-2.0586-7.2773-1.38-1.5766-2.7525-2.1799-5.209-2.1621zm25.723 6.793c-2.1005 0.008-4.0157 0.86416-4.8809 2.5801-1.3587 2.6947-1.4292 5.8699-1.375 8.5508 0.05934 2.9334-0.03954 6.0985 1.375 8.5801 1.0747 1.8854 3.0032 2.4615 4.8809 2.4609 2.074-0.00062 4.0172-0.7582 4.8809-2.4609 1.3691-2.6993 1.4351-5.8919 1.375-8.5801-0.06505-2.9112 0.03796-6.0791-1.375-8.5508-1.0793-1.888-2.9838-2.5873-4.8809-2.5801zm-17.094 0.42188v21.42h10.18v-4.5605h-5.6172v-16.859zm24.865 0v21.42h6.8926c1.7512 0 3.0666-0.57927 4.0469-1.7715 1.0703-1.3017 1.2105-3.0354 1.2266-4.5586 0.01231-1.1648-0.28864-2.2288-0.75977-3.1816-0.53069-1.0733-1.4991-1.4261-2.4766-1.7383 1.0269-0.28508 1.6171-0.94702 2.084-1.7402 0.56843-0.96564 0.66188-2.072 0.66211-3.0898 0.000707-3.1599-1.975-5.3398-4.7832-5.3398zm16.445 0-4.1953 21.42h4.7832l0.4668-3.75h3.6289l0.4668 3.75h4.8574l-4.2695-21.42zm10.805 0v21.42h10.18v-4.5605h-5.6172v-16.859zm-35.021 3.3594c0.94052-0.0698 1.1353 0.78358 1.2754 1.5 0.38414 1.9642 0.26248 4.0536 0.26953 5.8496 0.0079 2.0122-0.0034 3.9272-0.26953 5.8496-0.13504 0.97562-0.50528 1.4394-1.2754 1.5-0.95132 0.0749-1.1658-0.77091-1.3008-1.5-0.36358-1.9637-0.23731-4.0553-0.24414-5.8496-0.0076-2.0076-0.0073-3.9233 0.24414-5.8496 0.12823-0.9826 0.5193-1.442 1.3008-1.5zm12.334 0.66016h1.1035c1.253 0 1.3881 1.2285 1.4473 2.2188 0.07461 1.2481-0.44843 2.1602-1.4473 2.1602h-1.1035zm14.752 0.35938 1.2754 9.0898h-2.5508zm-14.752 7.8008h1.2754c1.3785 0 1.5741 1.5149 1.6191 2.5801 0.06165 1.4589-0.38574 2.6387-1.6191 2.6387h-1.2754z" enable-background="new" fill="url(#solidDarkBlue)"/></svg>